<?xml version="1.0" standalone="no"?>
<!DOCTYPE svg PUBLIC "-//W3C//DTD SVG 20010904//EN"
 "http://www.w3.org/TR/2001/REC-SVG-20010904/DTD/svg10.dtd">
<svg version="1.0" xmlns="http://www.w3.org/2000/svg"
 width="500.000000pt" height="500.000000pt" viewBox="0 0 500.000000 500.000000"
 preserveAspectRatio="xMidYMid meet">

<g transform="translate(0.000000,500.000000) scale(0.100000,-0.100000)"
fill="#000000" stroke="none">
<path d="M1791 3534 c-152 -41 -274 -160 -321 -313 -19 -60 -20 -95 -20 -715
0 -723 0 -718 65 -826 43 -70 116 -140 184 -174 109 -56 112 -56 798 -56 430
0 649 4 685 11 172 37 322 189 358 364 7 34 10 272 8 711 l-3 659 -23 54 c-63
147 -175 249 -317 286 -85 22 -1331 21 -1414 -1z m323 -518 c18 -7 42 -26 54
-40 41 -53 375 -396 385 -396 6 0 45 34 88 75 70 69 80 75 118 75 45 0 44 -3
42 80 -2 144 38 210 125 210 52 0 89 -21 110 -62 20 -39 19 -343 -1 -382 -8
-14 -16 -38 -18 -53 -2 -16 -5 69 -6 189 l-1 216 -31 26 c-17 14 -37 26 -45
26 -24 0 -71 -28 -78 -45 -3 -9 -6 -138 -6 -285 0 -183 -3 -271 -11 -276 -8
-4 -8 -9 0 -17 6 -6 11 -18 10 -26 0 -11 -3 -10 -9 4 -8 18 -9 18 -10 -5 l-2
-25 -8 25 c-4 14 -9 86 -10 160 -3 172 -7 194 -41 198 -19 2 -41 -12 -97 -64
-40 -37 -72 -73 -72 -82 0 -8 14 -30 30 -49 17 -19 28 -38 25 -43 -3 -6 0 -7
8 -5 7 3 22 -3 32 -15 10 -11 16 -20 14 -21 -2 0 -13 -2 -25 -4 -14 -3 -35 10
-69 45 -27 28 -55 50 -61 50 -6 0 -28 -18 -48 -41 l-37 -40 48 -50 c26 -27 53
-60 61 -74 7 -14 17 -25 22 -25 5 0 14 -10 20 -22 9 -19 9 -21 -2 -8 -7 8 -20
16 -28 18 -24 5 -50 34 -43 46 3 6 3 8 -2 4 -4 -4 -30 13 -58 38 l-50 45 -77
-76 c-71 -69 -81 -75 -119 -75 l-41 0 0 -75 c0 -124 -33 -178 -117 -190 -50
-8 -100 19 -125 65 -17 32 -18 67 -18 458 0 396 1 425 19 460 22 43 52 62 114
71 4 0 22 -5 41 -13z m619 -625 c5 0 5 -6 2 -11 -5 -8 -12 -7 -23 2 -15 12
-16 11 -3 -4 7 -10 17 -16 21 -13 5 3 11 1 15 -5 4 -6 12 -7 18 -4 7 4 9 4 5
-1 -4 -4 -3 -14 3 -21 7 -8 6 -14 -2 -20 -7 -4 -9 -3 -5 4 3 6 2 13 -4 17 -5
3 -10 1 -10 -6 0 -7 -16 2 -35 21 -19 19 -35 37 -35 41 0 5 20 6 53 0z m87
-117 c0 -8 -19 -13 -24 -6 -3 5 1 9 9 9 8 0 15 -2 15 -3z m-186 -70 c3 -8 2
-12 -4 -9 -6 3 -10 10 -10 16 0 14 7 11 14 -7z"/>
<path d="M2190 2805 c-8 -10 -10 -29 -6 -57 6 -36 23 -58 124 -162 64 -67 122
-122 128 -124 6 -2 27 15 48 38 l37 41 -138 139 c-139 141 -165 158 -193 125z"/>
<path d="M2006 2764 c-14 -13 -16 -60 -16 -355 l0 -340 25 -24 c31 -32 74 -32
109 0 l26 24 0 304 0 304 -54 52 c-60 56 -67 59 -90 35z"/>
<path d="M2200 2469 c0 -162 4 -179 45 -179 11 1 51 30 90 66 l69 65 -102 102
-102 102 0 -156z"/>
</g>
</svg>
